<?xml version="1.0" encoding="UTF-8" standalone="no"?>
<!DOCTYPE svg PUBLIC "-//W3C//DTD SVG 1.1//EN" "http://www.w3.org/Graphics/SVG/1.1/DTD/svg11.dtd">
<svg width="100%" height="100%" viewBox="0 0 301 200" version="1.1" xmlns="http://www.w3.org/2000/svg" xmlns:xlink="http://www.w3.org/1999/xlink" xml:space="preserve" xmlns:serif="http://www.serif.com/" style="fill-rule:evenodd;clip-rule:evenodd;stroke-linecap:round;stroke-linejoin:round;stroke-miterlimit:1.5;">
    <g transform="matrix(1,0,0,1,-518,-33)">
        <g id="grid">
        </g>
        <g id="header" transform="matrix(0.735088,0,0,0.735088,175.107018,-5.663701)">
            <g id="Logo" transform="matrix(1.360382,0,0,1.360382,175.343675,11.785941)">
                <g transform="matrix(1.006689,0,0,1.086957,121.384615,-89.565217)">
                    <path d="M370.14,110L391,129.32L391,274.68L370.14,294L112.86,294L92,274.68L92,129.32L112.86,110L370.14,110Z" style="fill:rgb(60,60,60);"/>
                </g>
                <g transform="matrix(0.946488,0,0,0.994565,135.923077,-70.402174)">
                    <path d="M375.152,110L391,125.082L391,278.918L375.152,294L107.848,294L92,278.918L92,125.082L107.848,110L375.152,110Z" style="fill:none;stroke:white;stroke-width:6.18px;"/>
                </g>
                <g transform="matrix(268,0,0,132.687719,-109115,-76896.032122)">
                    <path d="M408.345,580L408.345,580.072L408.356,580.072C408.356,580.072 408.356,580.044 408.36,580.033C408.366,580.02 408.377,580.022 408.382,580.023L408.381,580.132C408.381,580.134 408.382,580.151 408.38,580.155C408.377,580.16 408.364,580.159 408.364,580.159L408.364,580.183L408.421,580.183L408.421,580.158C408.421,580.158 408.408,580.16 408.405,580.155C408.403,580.151 408.403,580.137 408.403,580.133L408.403,580.023C408.403,580.023 408.415,580.022 408.42,580.028C408.428,580.039 408.428,580.072 408.428,580.072L408.439,580.072L408.439,580L408.345,580Z" style="fill:white;fill-rule:nonzero;"/>
                    <path d="M408.498,580L408.448,580L408.448,580.022C408.45,580.022 408.456,580.022 408.459,580.026C408.461,580.03 408.461,580.035 408.461,580.047L408.461,580.134C408.461,580.147 408.462,580.157 408.459,580.161C408.457,580.162 408.45,580.162 408.448,580.162L408.448,580.183L408.498,580.183L408.498,580.162C408.496,580.162 408.486,580.163 408.484,580.159C408.482,580.154 408.482,580.133 408.482,580.133L408.482,580.103L408.525,580.103L408.525,580.133C408.525,580.138 408.525,580.155 408.522,580.16C408.52,580.162 408.511,580.162 408.509,580.162L408.509,580.183L408.559,580.183L408.559,580.162C408.558,580.162 408.549,580.162 408.547,580.158C408.545,580.154 408.546,580.142 408.546,580.137L408.546,580.047C408.546,580.038 408.546,580.031 408.549,580.026C408.55,580.023 408.556,580.022 408.559,580.022L408.559,580L408.509,580L408.509,580.022C408.515,580.022 408.521,580.023 408.522,580.028C408.525,580.033 408.525,580.042 408.525,580.054L408.525,580.079L408.482,580.079L408.482,580.057C408.482,580.036 408.482,580.031 408.486,580.025C408.488,580.022 408.498,580.022 408.498,580.022L408.498,580Z" style="fill:white;fill-rule:nonzero;"/>
                    <path d="M408.568,580L408.568,580.022C408.569,580.022 408.579,580.022 408.581,580.025C408.584,580.029 408.584,580.044 408.584,580.047L408.584,580.135C408.584,580.143 408.584,580.151 408.582,580.157C408.58,580.162 408.572,580.161 408.569,580.161L408.569,580.183L408.664,580.183L408.664,580.109L408.654,580.109C408.654,580.121 408.653,580.136 408.651,580.145C408.646,580.163 408.632,580.162 408.626,580.162L408.605,580.161L408.605,580.103C408.611,580.103 408.618,580.102 408.62,580.105C408.626,580.11 408.626,580.132 408.626,580.132L408.635,580.132L408.636,580.05L408.626,580.05C408.626,580.05 408.626,580.076 408.62,580.078C408.616,580.079 408.613,580.079 408.605,580.079L408.605,580.027C408.605,580.025 408.605,580.025 408.606,580.023C408.607,580.022 408.609,580.023 408.61,580.023L408.63,580.023C408.636,580.023 408.643,580.022 408.649,580.032C408.655,580.043 408.654,580.064 408.654,580.072L408.664,580.072L408.664,580L408.568,580Z" style="fill:white;fill-rule:nonzero;"/>
                    <path d="M408.021,580.335L408.021,580.363C408.024,580.363 408.035,580.363 408.037,580.366C408.042,580.372 408.041,580.393 408.041,580.396L408.041,580.507C408.041,580.513 408.042,580.535 408.04,580.541C408.036,580.549 408.023,580.547 408.023,580.547L408.023,580.576L408.097,580.577L408.097,580.545C408.097,580.545 408.078,580.547 408.073,580.541C408.069,580.534 408.07,580.513 408.07,580.507L408.07,580.474C408.07,580.472 408.07,580.469 408.071,580.467L408.103,580.467C408.119,580.467 408.132,580.466 408.141,580.434C408.146,580.415 408.145,580.383 408.14,580.367C408.13,580.332 408.11,580.335 408.1,580.335L408.021,580.335ZM408.084,580.438L408.07,580.438L408.07,580.363L408.087,580.363C408.096,580.363 408.107,580.361 408.113,580.381C408.116,580.392 408.117,580.409 408.113,580.422C408.107,580.44 408.084,580.438 408.084,580.438Z" style="fill:white;fill-rule:nonzero;"/>
                    <path d="M408.156,580.335L408.156,580.364C408.158,580.364 408.17,580.364 408.173,580.368C408.178,580.373 408.177,580.393 408.177,580.397L408.177,580.512C408.177,580.523 408.178,580.534 408.174,580.542C408.171,580.548 408.161,580.547 408.157,580.547L408.157,580.576L408.283,580.576L408.283,580.479L408.269,580.478C408.269,580.494 408.268,580.513 408.265,580.526C408.258,580.549 408.241,580.548 408.233,580.548L408.205,580.548L408.205,580.47C408.213,580.47 408.221,580.47 408.224,580.473C408.232,580.48 408.232,580.508 408.232,580.508L408.245,580.508L408.245,580.4L408.232,580.4C408.232,580.4 408.232,580.435 408.224,580.437C408.22,580.439 408.216,580.438 408.205,580.438L408.205,580.371C408.205,580.368 408.205,580.367 408.206,580.365C408.208,580.364 408.21,580.365 408.211,580.365L408.238,580.365C408.246,580.365 408.255,580.364 408.262,580.377C408.27,580.392 408.269,580.419 408.269,580.43L408.283,580.43L408.283,580.335L408.156,580.335Z" style="fill:white;fill-rule:nonzero;"/>
                    <path d="M408.349,580.331C408.341,580.333 408.332,580.337 408.325,580.344C408.303,580.366 408.296,580.402 408.294,580.435C408.292,580.47 408.297,580.521 408.314,580.55C408.335,580.586 408.364,580.587 408.386,580.573C408.406,580.561 408.418,580.536 408.424,580.497C408.429,580.46 408.428,580.408 408.412,580.373C408.396,580.333 408.366,580.327 408.349,580.331ZM408.346,580.367C408.349,580.363 408.357,580.36 408.36,580.36C408.369,580.36 408.38,580.365 408.387,580.387C408.397,580.416 408.397,580.478 408.391,580.508C408.387,580.53 408.381,580.544 408.369,580.55C408.361,580.553 408.348,580.551 408.339,580.535C408.324,580.508 408.326,580.448 408.327,580.429C408.328,580.409 408.332,580.38 408.346,580.367Z" style="fill:white;fill-rule:nonzero;"/>
                    <path d="M408.439,580.335L408.439,580.363C408.441,580.363 408.452,580.363 408.454,580.366C408.459,580.372 408.458,580.393 408.458,580.396L408.458,580.507C408.458,580.513 408.459,580.535 408.457,580.541C408.453,580.549 408.44,580.547 408.44,580.547L408.44,580.576L408.514,580.577L408.514,580.545C408.514,580.545 408.496,580.547 408.49,580.541C408.486,580.534 408.487,580.513 408.487,580.507L408.487,580.474C408.487,580.472 408.487,580.469 408.488,580.467L408.52,580.467C408.536,580.467 408.549,580.466 408.558,580.434C408.563,580.415 408.562,580.383 408.557,580.367C408.547,580.332 408.527,580.335 408.517,580.335L408.439,580.335ZM408.502,580.438L408.487,580.438L408.487,580.363L408.505,580.363C408.513,580.363 408.524,580.361 408.53,580.381C408.533,580.392 408.534,580.409 408.53,580.422C408.524,580.44 408.502,580.438 408.502,580.438Z" style="fill:white;fill-rule:nonzero;"/>
                    <path d="M408.572,580.335L408.572,580.365C408.572,580.365 408.585,580.364 408.587,580.366C408.592,580.372 408.592,580.401 408.592,580.401L408.592,580.513C408.592,580.52 408.592,580.537 408.59,580.541C408.588,580.545 408.585,580.547 408.582,580.547L408.573,580.547L408.573,580.576L408.69,580.576L408.69,580.475L408.674,580.475C408.674,580.475 408.675,580.518 408.671,580.527C408.665,580.548 408.648,580.546 408.641,580.546L408.619,580.546L408.619,580.4C408.619,580.392 408.618,580.376 408.621,580.369C408.624,580.363 408.636,580.365 408.638,580.365L408.641,580.365L408.641,580.335L408.572,580.335Z" style="fill:white;fill-rule:nonzero;"/>
                    <path d="M408.702,580.335L408.702,580.364C408.704,580.364 408.716,580.364 408.719,580.368C408.724,580.373 408.723,580.393 408.723,580.397L408.723,580.512C408.723,580.523 408.724,580.534 408.72,580.542C408.717,580.548 408.707,580.547 408.703,580.547L408.703,580.576L408.829,580.576L408.828,580.479L408.815,580.478C408.815,580.494 408.814,580.513 408.811,580.526C408.804,580.549 408.786,580.548 408.779,580.548L408.751,580.548L408.751,580.47C408.758,580.47 408.767,580.47 408.77,580.473C408.778,580.48 408.778,580.508 408.778,580.508L408.791,580.508L408.791,580.4L408.778,580.4C408.778,580.4 408.778,580.435 408.77,580.437C408.766,580.439 408.762,580.438 408.751,580.438L408.751,580.371C408.751,580.368 408.751,580.367 408.752,580.365C408.753,580.364 408.755,580.365 408.757,580.365L408.783,580.365C408.792,580.365 408.801,580.364 408.808,580.377C408.816,580.392 408.815,580.419 408.815,580.43L408.829,580.43L408.829,580.335L408.702,580.335Z" style="fill:white;fill-rule:nonzero;"/>
                    <path d="M408.847,580.432C408.854,580.427 408.865,580.408 408.868,580.391C408.871,580.378 408.872,580.36 408.868,580.349C408.864,580.338 408.858,580.335 408.853,580.336C408.848,580.337 408.843,580.342 408.841,580.352C408.839,580.361 408.839,580.371 408.842,580.377C408.845,580.388 408.85,580.388 408.856,580.387C408.856,580.389 408.854,580.394 408.853,580.396C408.852,580.398 408.851,580.401 408.849,580.403C408.846,580.408 408.843,580.412 408.841,580.415L408.847,580.432Z" style="fill:white;fill-rule:nonzero;"/>
                    <path d="M408.965,580.355C408.952,580.337 408.937,580.332 408.924,580.332C408.916,580.332 408.895,580.33 408.884,580.377C408.881,580.391 408.881,580.412 408.883,580.426C408.888,580.468 408.902,580.473 408.919,580.479L408.942,580.487C408.95,580.489 408.963,580.491 408.966,580.511C408.968,580.519 408.967,580.529 408.964,580.535C408.956,580.553 408.934,580.55 408.926,580.546C408.91,580.538 408.904,580.526 408.9,580.493C408.898,580.492 408.884,580.492 408.884,580.492L408.884,580.576C408.884,580.576 408.893,580.575 408.897,580.576C408.898,580.575 408.9,580.567 408.9,580.566C408.9,580.564 408.901,580.557 408.903,580.556C408.919,580.579 408.936,580.582 408.951,580.579C408.963,580.577 408.977,580.569 408.985,580.54C408.991,580.521 408.991,580.491 408.987,580.472C408.979,580.439 408.961,580.432 408.948,580.428L408.93,580.423C408.926,580.422 408.909,580.417 408.906,580.399C408.904,580.391 408.905,580.382 408.908,580.375C408.915,580.359 408.934,580.363 408.941,580.366C408.955,580.372 408.963,580.386 408.967,580.416L408.982,580.416L408.982,580.335L408.969,580.335L408.965,580.355Z" style="fill:white;fill-rule:nonzero;"/>
                    <path d="M408.262,580.728L408.18,580.728L408.18,580.757C408.187,580.757 408.193,580.758 408.196,580.761C408.201,580.768 408.2,580.783 408.2,580.793L408.2,580.904C408.2,580.914 408.201,580.929 408.196,580.936C408.193,580.94 408.187,580.94 408.18,580.94L408.18,580.969L408.264,580.969C408.28,580.969 408.297,580.967 408.306,580.932C408.311,580.915 408.312,580.891 408.306,580.874C408.299,580.851 408.288,580.848 408.278,580.844C408.288,580.839 408.298,580.836 408.303,580.811C408.306,580.795 408.307,580.775 408.301,580.759C408.291,580.73 408.27,580.728 408.262,580.728ZM408.228,580.83L408.228,580.757L408.245,580.757C408.252,580.757 408.268,580.756 408.274,580.773C408.277,580.781 408.278,580.795 408.277,580.804C408.274,580.817 408.27,580.825 408.264,580.828C408.261,580.83 408.228,580.83 408.228,580.83ZM408.228,580.86C408.228,580.859 408.249,580.86 408.249,580.86C408.258,580.86 408.271,580.858 408.278,580.88C408.281,580.891 408.281,580.911 408.278,580.921C408.272,580.942 408.253,580.94 408.248,580.94L408.228,580.94L408.228,580.86Z" style="fill:white;fill-rule:nonzero;"/>
                    <path d="M408.368,580.904L408.368,580.793C408.368,580.783 408.367,580.768 408.373,580.761C408.375,580.758 408.382,580.757 408.388,580.757L408.388,580.728L408.321,580.728L408.321,580.757C408.327,580.757 408.333,580.758 408.336,580.761C408.341,580.768 408.341,580.783 408.341,580.793L408.341,580.904C408.341,580.914 408.341,580.929 408.336,580.936C408.333,580.94 408.327,580.94 408.321,580.94L408.321,580.969L408.388,580.969L408.388,580.94C408.382,580.94 408.375,580.94 408.373,580.936C408.367,580.929 408.368,580.914 408.368,580.904Z" style="fill:white;fill-rule:nonzero;"/>
                    <path d="M408.4,580.728L408.4,580.757C408.4,580.757 408.413,580.755 408.416,580.763C408.419,580.768 408.418,580.787 408.418,580.791L408.418,580.904C408.418,580.904 408.42,580.933 408.415,580.939C408.412,580.941 408.403,580.941 408.4,580.941L408.4,580.969L408.456,580.969L408.456,580.942C408.456,580.942 408.44,580.945 408.436,580.936C408.433,580.929 408.434,580.91 408.434,580.905L408.434,580.783L408.5,580.969L408.526,580.969L408.526,580.789C408.526,580.785 408.526,580.766 408.529,580.76C408.53,580.758 408.531,580.756 408.535,580.756L408.541,580.756L408.541,580.728L408.491,580.728L408.491,580.756L408.499,580.756C408.502,580.756 408.506,580.756 408.508,580.762C408.512,580.769 408.511,580.787 408.511,580.796L408.511,580.9L408.45,580.728L408.4,580.728Z" style="fill:white;fill-rule:nonzero;"/>
                    <path d="M408.649,580.75C408.64,580.733 408.631,580.727 408.623,580.724C408.61,580.72 408.583,580.727 408.568,580.76C408.551,580.797 408.55,580.853 408.554,580.89C408.559,580.928 408.57,580.955 408.59,580.968C408.6,580.975 408.616,580.977 408.628,580.971C408.637,580.966 408.643,580.96 408.648,580.946L408.654,580.968L408.667,580.968L408.667,580.914C408.667,580.899 408.667,580.887 408.669,580.883C408.672,580.878 408.684,580.879 408.686,580.879L408.686,580.851L408.616,580.851L408.616,580.879L408.621,580.879C408.624,580.879 408.636,580.878 408.638,580.885C408.64,580.89 408.639,580.916 408.639,580.92C408.637,580.931 408.631,580.939 408.626,580.941C408.617,580.945 408.605,580.945 408.596,580.931C408.581,580.905 408.583,580.847 408.584,580.821C408.586,580.797 408.589,580.774 408.603,580.76C408.612,580.75 408.624,580.75 408.636,580.764C408.648,580.777 408.65,580.796 408.651,580.819L408.667,580.819L408.667,580.728L408.653,580.728L408.649,580.75Z" style="fill:white;fill-rule:nonzero;"/>
                    <path d="M408.752,580.724C408.744,580.726 408.736,580.73 408.729,580.737C408.707,580.759 408.7,580.795 408.698,580.828C408.696,580.863 408.7,580.914 408.717,580.943C408.739,580.979 408.768,580.98 408.789,580.966C408.809,580.954 408.822,580.929 408.827,580.89C408.833,580.853 408.831,580.801 408.816,580.766C408.799,580.726 408.77,580.72 408.752,580.724ZM408.749,580.76C408.753,580.756 408.761,580.753 408.764,580.753C408.773,580.753 408.783,580.758 408.791,580.78C408.801,580.809 408.8,580.871 408.795,580.901C408.791,580.923 408.784,580.937 408.772,580.943C408.764,580.946 408.751,580.944 408.743,580.928C408.728,580.901 408.729,580.841 408.73,580.822C408.732,580.802 408.736,580.773 408.749,580.76Z" style="fill:white;fill-rule:nonzero;"/>
                </g>
            </g>
        </g>
        <g id="Buttons">
        </g>
    </g>
</svg>
